<svg width="32" height="32" xmlns="http://www.w3.org/2000/svg">

 <g>
  <title>background</title>
  <rect fill="none" id="canvas_background" height="402" width="582" y="-1" x="-1"/>
 </g>
 <g>
  <title>Layer 1</title>
  <path id="svg_1" fill="#008d99" d="m15.999,0c-8.836,0 -16,7.164 -16,16c0,8.837 7.164,16 16,16s16,-7.163 16,-16c0,-8.836 -7.164,-16 -16,-16zm4.482,28.189c-0.092,-1.252 -0.195,-2.803 -0.201,-3.431c-0.04,-0.482 -0.092,-1.708 -1.256,-2.491c4.621,-0.387 6.82,-2.941 6.978,-6.316c0.132,-1.922 -0.632,-3.612 -1.989,-4.976c0.069,-1.459 -0.044,-3.188 -0.138,-3.948c-1.042,-0.3 -3.472,0.983 -4.151,1.532c-1.432,-0.556 -4.937,-0.751 -7.067,0c-1.51,-1.062 -3.229,-1.718 -4.166,-1.535c-0.865,1.917 -0.309,3.729 -0.14,3.945c-1.114,1.018 -2.668,2.271 -2.246,4.896c0.677,3.849 3.385,5.925 7.745,6.433c-0.93,0.19 -1.087,0.884 -1.165,1.185c-2.928,1.208 -3.765,-0.746 -4.135,-1.255c-1.229,-1.521 -2.332,-1.08 -2.4,-1.056c-0.066,0.024 -0.116,0.12 -0.109,0.166c0.062,0.328 0.731,0.661 0.764,0.688c0.907,0.676 1.243,1.897 1.45,2.245c1.301,2.139 4.325,1.252 4.354,1.27c0.002,0.187 -0.021,1.761 -0.039,2.986c-5.514,-1.506 -9.571,-6.536 -9.571,-12.527c0,-7.18 5.82,-13 13,-13s13,5.82 13,13c0,5.603 -3.55,10.362 -8.518,12.189z"/>
 </g>
</svg>