<svg width="512" height="512" xmlns="http://www.w3.org/2000/svg">

 <g>
  <title>background</title>
  <rect fill="#008d99" id="canvas_background" height="514" width="514" y="-1" x="-1"/>
 </g>
 <g>
  <title>Layer 1</title>
  <polygon id="svg_2" points="397.89,83.035 114.106,83.035 256.003,195.386   "/>
  <polygon id="svg_3" points="102.498,197.958 102.498,428.965 409.496,428.965 409.496,197.934 256.005,316.344   "/>
  <path id="svg_4" d="m442.871,83.035l-14.375,0l-172.493,136.586l-172.505,-136.586l-14.373,0c-23.803,0 -43.124,19.37 -43.124,43.241l0,259.446c0,23.867 19.321,43.24 43.124,43.24l14.373,0l0,-269.65l172.505,133.038l172.493,-133.07l0,269.684l14.375,0c23.806,0 43.128,-19.373 43.128,-43.24l0,-259.448c0,-23.87 -19.319,-43.241 -43.128,-43.241z"/>
 </g>
</svg>