<svg width="512" height="512" xmlns="http://www.w3.org/2000/svg">

 <g>
  <title>background</title>
  <rect fill="none" id="canvas_background" height="402" width="582" y="-1" x="-1"/>
 </g>
 <g>
  <title>Layer 1</title>
  <path fill="#00bf00" id="svg_1" d="m376,16l-240,0c-66.274,0 -120,53.726 -120,120l0,240c0,66.274 53.726,120 120,120l240,0c66.274,0 120,-53.726 120,-120l0,-240c0,-66.274 -53.726,-120 -120,-120zm-6.487,112l-111.408,87.926l-111.415,-87.926l222.823,0zm5.487,248l-234,0l0,-175.937l111.924,86.055c1.525,1.17 3.315,1.786 5.181,1.786c1.852,0 3.512,-0.584 5.077,-1.785l111.818,-86.073l0,175.954zm51,-28.835c0,17.003 -14.032,30.835 -31.279,30.835l-10.721,0l0,-195.851l-125.95,96.866l-126.05,-96.839l0,195.821l-9.941,0.003c-17.126,0 -31.059,-13.832 -31.059,-30.835l0,-188.628c0,-17.124 13.643,-30.537 31.059,-30.537l9.114,0c0.585,0 1.071,-0.146 1.448,-0.314l125.482,99.02l125.558,-98.988c0.373,0.158 0.829,0.283 1.368,0.283l9.691,0c17.248,-0.001 31.28,13.698 31.28,30.536l0,188.628z"/>
 </g>
</svg>