<svg width="512" height="512" xmlns="http://www.w3.org/2000/svg">

 <g>
  <title>background</title>
  <rect fill="#005e66" id="canvas_background" height="514" width="514" y="-1" x="-1"/>
 </g>
 <g>
  <title>Layer 1</title>
  <path fill="#ffffff" id="svg_2" d="m48.8,257.1c0,-40.3 0.1,-80.7 -0.1,-121c0,-3.8 1.2,-5.9 4.4,-7.9c66,-40.1 132,-80.2 197.9,-120.5c4.3,-2.6 7.2,-2.6 11.5,0c66,40.4 132.2,80.6 198.3,120.8c3,1.8 3.9,3.8 3.9,7.1c-0.1,81.2 -0.1,162.3 0,243.5c0,3.5 -1.2,5.3 -4.1,7c-66.9,40.6 -133.7,81.3 -200.5,122.1c-2.7,1.6 -4.5,1.6 -7.1,-0.1c-66.9,-40.8 -133.9,-81.6 -200.9,-122.3c-2.9,-1.8 -3.5,-3.8 -3.5,-6.8c0.3,-40.6 0.2,-81.3 0.2,-121.9zm13,0.2c0,37.8 0.1,75.7 -0.1,113.5c0,3.9 1,6.2 4.5,8.3c62.1,37.6 124.1,75.4 186,113.2c3.5,2.1 5.8,2 9.3,-0.1c62.1,-37.9 124.2,-75.8 186.4,-113.5c2.9,-1.8 4,-3.7 4,-7.1c-0.1,-76.2 -0.1,-152.3 0,-228.5c0,-3.7 -1.2,-5.6 -4.3,-7.4c-62.3,-37.8 -124.6,-75.7 -186.8,-113.7c-3,-1.8 -5.1,-1.7 -8,0.1c-62.3,37.9 -124.5,75.9 -186.9,113.7c-3.1,1.9 -4.2,3.9 -4.2,7.5c0.2,38 0.1,76 0.1,114z"/>
  <path fill="#ffffff" id="svg_3" d="m126.3,353.606145c0,-65.2 0,-130 0,-195c87.1,0 174,0 261.2,0c0,65 0,129.9 0,195c-87.1,0 -173.9,0 -261.2,0zm110.7,-93.1c-0.6,0.2 -0.8,0.2 -0.9,0.3c-22.6,18.1 -45.2,36.2 -67.8,54.4c-0.7,0.6 -1.5,1.5 -1.5,2.3c-0.1,11.3 -0.1,22.5 -0.1,34c61.4,0 122.1,0 183.3,0c0,-8.6 -0.6,-17 0.2,-25.2c0.9,-9.2 -2.3,-14.6 -10.1,-19.8c-20.6,-13.6 -40.4,-28.1 -60.5,-42.5c-3,-2.2 -4.7,-1.8 -7.1,0.6c-3.8,3.7 -8.1,7 -11.9,10.6c-2.3,2.2 -3.9,2.1 -6.3,0c-5.7,-5.1 -11.6,-9.9 -17.3,-14.7zm-57.7,-100.1c25.8,26.1 51.4,52.1 77.9,78.9c26.9,-26.1 53.6,-52 80.3,-77.9c-0.3,-0.4 -0.5,-0.7 -0.8,-1.1c-52.5,0.1 -104.9,0.1 -157.4,0.1zm100.8,97.6c23.4,16.4 46.2,32.3 69.5,48.6c0,-36.6 0,-72.3 0,-108.8c-23.4,20.2 -46.2,39.9 -69.5,60.2zm-47.6,-1.4c-22,-18.7 -43.4,-36.9 -65.4,-55.6c0,36.3 0,71.5 0,107.8c22.1,-17.7 43.5,-34.8 65.4,-52.2z"/>
 </g>
</svg>