<svg width="141.732" height="141.732" xmlns="http://www.w3.org/2000/svg">

 <g>
  <title>background</title>
  <rect fill="none" id="canvas_background" height="402" width="582" y="-1" x="-1"/>
 </g>
 <g>
  <title>Layer 1</title>
  <path fill="#00bf00" id="svg_1" d="m108.225,118.226l-66.22,0l0,-107.337l66.22,0l0,107.337zm-38.263,10.899c0,-2.951 2.37,-5.345 5.294,-5.345c2.925,0 5.294,2.394 5.294,5.345c0,2.95 -2.369,5.348 -5.294,5.348c-2.924,-0.004 -5.294,-2.398 -5.294,-5.348m42.706,4.851l0.009,0l0,-128.635l0,-0.001l0,-0.026l-0.002,0c-0.014,-2.937 -2.397,-5.314 -5.339,-5.314c-0.021,0 -0.038,0.002 -0.057,0.002l0,-0.002l-11.997,0l-35,0l-17.388,0c-2.938,0.002 -5.319,2.379 -5.335,5.314l-0.001,0l0,128.661l0.008,0c-0.002,0.056 -0.008,0.111 -0.008,0.169c0,2.878 2.419,5.212 5.404,5.212c0.044,0 0.087,-0.006 0.131,-0.007l0,0.007l64.316,0l0,0c2.904,0 5.267,-2.333 5.267,-5.212c0.001,-0.057 -0.006,-0.113 -0.008,-0.168"/>
 </g>
</svg>