<svg width="64" height="64" xmlns="http://www.w3.org/2000/svg">

 <g>
  <title>background</title>
  <rect fill="none" id="canvas_background" height="402" width="582" y="-1" x="-1"/>
 </g>
 <g>
  <title>Layer 1</title>
  <rect id="svg_1" fill="#008d99" y="3" x="9" width="46" height="58"/>
  <rect id="svg_2" fill="#d9dae2" y="7" x="13" width="38" height="50"/>
  <path id="svg_3" fill="#e5e6eb" d="m13,7l38,0a0,0 0 0 1 0,0l0,12a38,38 0 0 1 -38,38l0,0a0,0 0 0 1 0,0l0,-50a0,0 0 0 1 0,0z"/>
  <path id="svg_4" fill="#fff" d="m32,21a4,4 0 0 1 -4,-4a3.952,3.952 0 0 1 0.492,-1.911l-1.629,-6.514l1.937,-0.484l1.731,6.926a1,1 0 0 1 -0.157,0.824a2,2 0 1 0 3.244,0a1,1 0 0 1 -0.157,-0.824l1.819,-7.259l1.94,0.484l-1.712,6.847a3.952,3.952 0 0 1 0.492,1.911a4,4 0 0 1 -4,4z"/>
  <rect id="svg_5" fill="#008d99" y="48" x="35" width="10" height="4"/>
  <rect id="svg_6" fill="#008d99" y="27" x="22" width="7" height="2"/>
  <rect id="svg_7" fill="#008d99" y="27" x="31" width="2" height="2"/>
  <rect id="svg_8" fill="#008d99" y="27" x="35" width="9" height="2"/>
  <rect id="svg_9" fill="#008d99" y="14" x="39" width="8" height="8"/>
  <rect id="svg_10" fill="#008d99" y="32" x="19" width="25" height="2"/>
  <rect id="svg_11" fill="#008d99" y="37" x="19" width="25" height="2"/>
  <rect id="svg_12" fill="#008d99" y="42" x="19" width="13" height="2"/>
  <rect id="svg_13" fill="#008d99" y="3" x="25" width="14" height="6"/>
  <path fill="#008d99" id="svg_14" d="m55,2l-46,0a1,1 0 0 0 -1,1l0,58a1,1 0 0 0 1,1l46,0a1,1 0 0 0 1,-1l0,-58a1,1 0 0 0 -1,-1zm-30,8l2.219,0l1.273,5.089a3.952,3.952 0 0 0 -0.492,1.911a4,4 0 0 0 8,0a3.952,3.952 0 0 0 -0.492,-1.911l1.273,-5.089l2.219,0a1,1 0 0 0 1,-1l0,-1l10,0l0,48l-36,0l0,-48l10,0l0,1a1,1 0 0 0 1,1zm8.622,5.841a2,2 0 1 1 -3.244,0a1,1 0 0 0 0.157,-0.824l-1.254,-5.017l5.438,0l-1.254,5.017a1,1 0 0 0 0.157,0.824zm4.378,-7.841l-12,0l0,-4l12,0l0,4zm11.622,63.841l-39.622,0l0,-67.841l14,0l0,2l-11,0a1,1 0 0 0 -1,1l0,50a1,1 0 0 0 1,1l38,0a1,1 0 0 0 1,-1l0,-50a1,1 0 0 0 -1,-1l-11,0l0,-2l14,0l-4.378,67.841z"/>
 </g>
</svg>