<svg width="512" height="512" xmlns="http://www.w3.org/2000/svg">

 <g>
  <title>background</title>
  <rect fill="none" id="canvas_background" height="402" width="582" y="-1" x="-1"/>
 </g>
 <g>
  <title>Layer 1</title>
  <path fill="#00bf00" id="svg_2" d="m256,242.379c17.228,0 31.242,-13.938 31.242,-31.07c0,-17.13 -14.015,-31.067 -31.242,-31.067c-17.223,0 -31.235,13.937 -31.235,31.067c0,17.133 14.012,31.07 31.235,31.07z"/>
  <path fill="#00bf00" id="svg_3" d="m314.183,292.458c0,-12.59 -10.301,-22.832 -22.963,-22.832l-70.16,0c-12.811,0 -23.233,10.365 -23.233,23.104l0,30.093l116.356,0l0,-30.365z"/>
  <path fill="#00bf00" id="svg_4" d="m323.164,95.115l0,-22.134l-40.217,0c-2.588,0 -4.686,-2.098 -4.686,-4.686c0,-12.201 -9.986,-22.126 -22.262,-22.126c-12.27,0 -22.252,9.926 -22.252,22.126c0,2.588 -2.098,4.686 -4.686,4.686l-40.216,0l0,22.134l0,22.125l134.318,0l0,-22.125l0.001,0z"/>
  <path fill="#00bf00" id="svg_5" d="m332.535,99.801l0,22.125c0,2.588 -2.098,4.686 -4.686,4.686l-143.689,0c-2.587,0 -4.686,-2.098 -4.686,-4.686l0,-22.125l-53.497,0l0,366.031l260.044,0l0,-366.031l-53.486,0zm-76.535,71.071c22.395,0 40.613,18.141 40.613,40.438c0,22.299 -18.219,40.44 -40.613,40.44c-22.391,0 -40.606,-18.142 -40.606,-40.44c0,-22.298 18.215,-40.438 40.606,-40.438zm-67.544,121.858c0,-17.907 14.626,-32.475 32.604,-32.475l70.16,0c17.829,0 32.334,14.445 32.334,32.202l0,35.051c0,2.588 -2.098,4.686 -4.686,4.686l-125.726,0c-2.588,0 -4.686,-2.098 -4.686,-4.686l0,-34.778zm67.544,140.518l-98.779,0c-2.588,0 -4.686,-2.097 -4.686,-4.686c0,-2.588 2.098,-4.686 4.686,-4.686l98.779,0c2.588,0 4.686,2.098 4.686,4.686c0,2.589 -2.098,4.686 -4.686,4.686zm98.787,-33.372l-197.566,0c-2.588,0 -4.686,-2.097 -4.686,-4.686c0,-2.588 2.098,-4.686 4.686,-4.686l197.566,0c2.588,0 4.686,2.098 4.686,4.686c0,2.589 -2.098,4.686 -4.686,4.686zm0,-33.37l-197.566,0c-2.588,0 -4.686,-2.098 -4.686,-4.686s2.098,-4.686 4.686,-4.686l197.566,0c2.588,0 4.686,2.098 4.686,4.686s-2.098,4.686 -4.686,4.686z"/>
 </g>
</svg>