<svg width="29.999999999999996" height="29.999999999999996" xmlns="http://www.w3.org/2000/svg">

 <g>
  <title>background</title>
  <rect fill="none" id="canvas_background" height="402" width="582" y="-1" x="-1"/>
 </g>
 <g>
  <title>Layer 1</title>
  <path fill="#008d99" id="svg_1" d="m21,1l-12,0c-1.105,0 -2,0.895 -2,2l0,24c0,1.105 0.895,2 2,2l12,0c1.105,0 2,-0.895 2,-2l0,-24c0,-1.105 -0.895,-2 -2,-2zm-6,26c-0.552,0 -1,-0.448 -1,-1c0,-0.552 0.448,-1 1,-1s1,0.448 1,1c0,0.552 -0.448,1 -1,1zm6,-3l-12,0l0,-20l12,0l0,20z"/>
 </g>
</svg>